<?xml version="1.0" standalone="no"?><!-- Generator: Gravit.io --><svg xmlns="http://www.w3.org/2000/svg" xmlns:xlink="http://www.w3.org/1999/xlink" style="isolation:isolate" viewBox="0 0 12.76 22" width="12.76" height="22"><defs><clipPath id="_clipPath_hJz2H1ksXv9PNUDTE2U0fBQczrsJnKxG"><rect width="12.76" height="22"/></clipPath></defs><g clip-path="url(#_clipPath_hJz2H1ksXv9PNUDTE2U0fBQczrsJnKxG)"><clipPath id="_clipPath_V5CZSg9lKq2fMLUgyCnovcwWAccftl9u"><rect x="0" y="0.335" width="12.76" height="21.33" transform="matrix(1,0,0,1,0,0)" fill="rgb(255,255,255)"/></clipPath><g clip-path="url(#_clipPath_V5CZSg9lKq2fMLUgyCnovcwWAccftl9u)"><g id="Group"><clipPath id="_clipPath_dKVoe7a5YvZxgXnCLwqutW08F5CLQlwZ"><rect x="0" y="0.335" width="12.76" height="21.33" transform="matrix(1,0,0,1,0,0)" fill="rgb(255,255,255)"/></clipPath><g clip-path="url(#_clipPath_dKVoe7a5YvZxgXnCLwqutW08F5CLQlwZ)"><g id="Group"><g id="Group"><path d=" M 3.032 9.787 L 3.032 3.683 C 3.032 1.835 4.532 0.335 6.38 0.335 L 6.38 0.335 C 8.227 0.335 9.727 1.835 9.727 3.683 L 9.727 9.787 C 9.727 11.634 8.227 13.134 6.38 13.134 L 6.38 13.134 C 4.532 13.134 3.032 11.634 3.032 9.787 Z " fill="rgb(255,255,255)"/><path d=" M 6.38 16.778 C 2.858 16.774 0.004 13.92 0 10.398 C 0 10.074 0.173 9.774 0.454 9.612 C 0.735 9.45 1.081 9.45 1.362 9.612 C 1.642 9.774 1.815 10.074 1.815 10.398 C 1.815 12.919 3.859 14.963 6.38 14.963 C 8.901 14.963 10.945 12.919 10.945 10.398 C 10.945 9.897 11.351 9.49 11.852 9.49 C 12.353 9.49 12.76 9.897 12.76 10.398 C 12.756 13.92 9.902 16.774 6.38 16.778 L 6.38 16.778 Z " fill="rgb(255,255,255)"/><path d=" M 6.38 21.661 C 5.879 21.661 5.472 21.254 5.472 20.753 L 5.472 15.87 C 5.472 15.369 5.879 14.963 6.38 14.963 C 6.881 14.963 7.288 15.369 7.288 15.87 L 7.288 20.753 C 7.288 21.254 6.881 21.661 6.38 21.661 L 6.38 21.661 Z " fill="rgb(255,255,255)"/><path d=" M 10.157 21.661 L 2.603 21.661 C 2.102 21.661 1.695 21.254 1.695 20.753 C 1.695 20.252 2.102 19.845 2.603 19.845 L 10.156 19.845 C 10.658 19.845 11.064 20.252 11.064 20.753 C 11.064 21.254 10.658 21.661 10.156 21.661 L 10.157 21.661 Z " fill="rgb(255,255,255)"/></g></g></g></g></g></g></svg>