<?xml version="1.0" encoding="UTF-8" standalone="no"?>
<svg
   xmlns:dc="http://purl.org/dc/elements/1.1/"
   xmlns:cc="http://creativecommons.org/ns#"
   xmlns:rdf="http://www.w3.org/1999/02/22-rdf-syntax-ns#"
   xmlns:svg="http://www.w3.org/2000/svg"
   xmlns="http://www.w3.org/2000/svg"
   version="1.1"
   id="svg2"
   height="14.832"
   width="85.928"
   viewBox="91.365 0 85.928 14.832"
   style="isolation:isolate">
  <metadata
     id="metadata29">
    <rdf:RDF>
      <cc:Work
         rdf:about="">
        <dc:format>image/svg+xml</dc:format>
        <dc:type
           rdf:resource="http://purl.org/dc/dcmitype/StillImage" />
        <dc:title></dc:title>
      </cc:Work>
    </rdf:RDF>
  </metadata>
  <defs
     id="defs27" />
  <path
     d="m 116.357,3.727 c 0,-0.746 0.57,-1.244 1.464,-1.244 0.609,0.014 1.206,0.175 1.74,0.469 l 0.643,-1.666 c -0.762,-0.397 -1.612,-0.593 -2.471,-0.57 -2.121,0 -3.437,1.241 -3.437,3.128 0,1.859 1.477,2.649 2.661,3.19 0.776,0.351 1.449,0.732 1.449,1.477 0,0.776 -0.629,1.288 -1.61,1.288 -0.679,-0.002 -1.348,-0.173 -1.944,-0.498 l -0.673,1.784 c 0.853,0.388 1.781,0.582 2.718,0.57 2.284,0 3.614,-1.314 3.614,-3.246 0,-1.872 -1.505,-2.604 -2.66,-3.174 -0.777,-0.381 -1.494,-0.776 -1.494,-1.508 m 9.893,3.775 c 0,1.492 -0.643,2.546 -1.888,2.546 -0.318,0.002 -0.634,-0.047 -0.937,-0.146 l 0,-4.771 c 0.294,-0.112 0.607,-0.167 0.922,-0.16 1.23,0 1.903,0.936 1.903,2.531 m 2.002,0 c 0,-2.561 -1.388,-4.08 -3.934,-4.08 -0.99,-0.021 -1.972,0.174 -2.88,0.569 l 0,10.634 1.987,0 0,-3.233 c 0.37,0.114 0.755,0.174 1.142,0.176 2.414,0 3.685,-1.637 3.685,-4.066 m 5.845,-0.848 -3.308,0.452 c 0.03,-1.477 0.762,-2.238 1.801,-2.238 0.921,0 1.507,0.6 1.507,1.786 m 1.899,1.023 c 0.024,-0.223 0.034,-0.448 0.03,-0.673 0,-2.15 -1.214,-3.582 -3.393,-3.582 -2.297,0 -3.655,1.695 -3.655,4.109 0,2.429 1.373,4.124 3.977,4.124 1,0.022 1.992,-0.172 2.91,-0.57 l -0.57,-1.49 c -0.685,0.328 -1.435,0.498 -2.194,0.497 -1.076,0.114 -2.045,-0.653 -2.18,-1.727 l 5.075,-0.688 z m 5.201,2.4 c -0.364,0.113 -0.745,0.168 -1.126,0.161 -1.04,0 -1.624,-0.425 -1.624,-1.171 0,-1.186 1.286,-1.318 2.75,-1.391 l 0,2.401 z m -1.069,1.578 c 1.014,0.02 2.021,-0.175 2.954,-0.57 l 0,-4.855 c 0,-2.019 -1.124,-2.808 -3.143,-2.808 -1.002,0.007 -1.994,0.2 -2.926,0.569 l 0.497,1.346 c 0.703,-0.287 1.451,-0.446 2.21,-0.469 0.906,0 1.477,0.307 1.477,1.127 l 0,0.41 c -2.386,0.133 -4.621,0.556 -4.621,2.706 0,1.609 1.183,2.544 3.552,2.544 m 8.074,-4.373 2.838,-3.684 -2.297,0 -2.603,3.451 -0.03,0 0,-7.049 -1.973,0 0,11.479 1.973,0 0,-3.977 0.03,0 2.837,3.977 2.252,0 -3.027,-4.197 z"
     id="path5"
     style="fill:#999999" />
  <path
     d="m 161.62,3.597 -1.987,0 0,7.883 1.987,0 0,-7.883 z m -4.693,0.498 c 0,1.112 -0.775,1.784 -2.224,1.784 -0.294,0.004 -0.588,-0.021 -0.878,-0.073 l 0,-3.351 c 0.346,-0.109 0.706,-0.163 1.068,-0.161 1.332,0 2.034,0.585 2.034,1.801 z m 2.017,0.013 c 0,-2.062 -1.447,-3.392 -4.08,-3.392 -1.047,-0.018 -2.086,0.176 -3.056,0.57 l 0,10.194 2.017,0 0,-4.111 c 0.325,0.051 0.653,0.075 0.981,0.073 2.735,0 4.138,-1.417 4.138,-3.333 m 2.823,-2.853 c -0.04,-0.6 -0.539,-1.067 -1.14,-1.067 -0.602,0 -1.1,0.467 -1.14,1.067 0.032,0.606 0.533,1.082 1.14,1.082 0.607,0 1.108,-0.476 1.14,-1.082 z m 5.75,6.246 c 0,1.492 -0.644,2.546 -1.887,2.546 -0.318,0.003 -0.635,-0.047 -0.937,-0.147 l 0,-4.77 c 0.293,-0.112 0.606,-0.167 0.921,-0.16 1.229,0 1.903,0.935 1.903,2.531 m 2.002,0 c 0,-2.561 -1.388,-4.08 -3.934,-4.08 -0.99,-0.021 -1.972,0.173 -2.88,0.569 l 0,10.633 1.988,0 0,-3.232 c 0.369,0.115 0.754,0.174 1.141,0.175 2.414,0 3.685,-1.636 3.685,-4.065 m 5.845,-0.849 -3.308,0.455 c 0.029,-1.48 0.761,-2.24 1.8,-2.24 0.922,0 1.508,0.6 1.508,1.785 m 1.928,0.351 c 0,-2.15 -1.213,-3.582 -3.392,-3.582 -2.297,0 -3.655,1.695 -3.655,4.109 0,2.43 1.372,4.123 3.977,4.123 1,0.023 1.993,-0.171 2.91,-0.569 l -0.57,-1.491 c -0.685,0.329 -1.434,0.499 -2.194,0.498 -1.076,0.114 -2.045,-0.654 -2.181,-1.727 l 5.076,-0.688 c 0.024,-0.224 0.033,-0.448 0.029,-0.673"
     id="path7"
     style="fill:#999999;fill-opacity:1" />
  <path
     d="M 106.076,3.991 C 106.068,3.984 106.058,3.988 106.05,3.98 l 0,-3.399 -11.588,0 0,3.398 c -0.008,0.008 -0.02,0.005 -0.027,0.012 -0.639,0.639 -0.999,1.505 -0.999,2.408 0,0.904 0.36,1.77 0.999,2.409 0.007,0.007 0.019,0.004 0.027,0.012 l 0,2.878 4.119,0 0,3.134 2.695,-3.134 4.774,0 0,-2.879 c 0.008,-0.008 0.02,-0.005 0.027,-0.012 0.64,-0.639 0.998,-1.505 0.998,-2.408 0,-0.904 -0.36,-1.77 -0.999,-2.408 l 0,0 z"
     id="path9"
     style="fill:#999999" />
  <path
     d="m 96.182,4.819 0,0 c 0.322,0 0.584,0.262 0.584,0.584 l 0,1.94 c 0,0.322 -0.262,0.584 -0.584,0.584 l 0,0 c -0.322,0 -0.584,-0.262 -0.584,-0.584 l 0,-1.94 c 0,-0.322 0.262,-0.584 0.584,-0.584 z"
     style="fill:#ffffff;stroke:none;stroke-miterlimit:10"
     id="path11" />
  <path
     d="m 104.392,4.819 0,0 c 0.322,0 0.584,0.262 0.584,0.584 l 0,1.94 c 0,0.322 -0.262,0.584 -0.584,0.584 l 0,0 c -0.322,0 -0.584,-0.262 -0.584,-0.584 l 0,-1.94 c 0,-0.322 0.262,-0.584 0.584,-0.584 z"
     style="fill:#ffffff;stroke:none;stroke-miterlimit:10"
     id="path13" />
  <path
     d="m 98.234,3.749 0,0 c 0.322,0 0.584,0.262 0.584,0.584 l 0,4.08 c 0,0.322 -0.262,0.584 -0.584,0.584 l 0,0 c -0.322,0 -0.583,-0.262 -0.583,-0.584 l 0,-4.08 c 0,-0.322 0.261,-0.584 0.583,-0.584 z"
     style="fill:#ffffff;stroke:none;stroke-miterlimit:10"
     id="path15" />
  <path
     d="m 102.339,3.749 0,0 c 0.323,0 0.584,0.262 0.584,0.584 l 0,4.08 c 0,0.322 -0.261,0.584 -0.584,0.584 l 0,0 c -0.322,0 -0.583,-0.262 -0.583,-0.584 l 0,-4.08 c 0,-0.322 0.261,-0.584 0.583,-0.584 z"
     style="fill:#ffffff;stroke:none;stroke-miterlimit:10"
     id="path17" />
  <path
     d="m 100.287,2.574 0,0 c 0.322,0 0.584,0.261 0.584,0.583 l 0,6.432 c 0,0.322 -0.262,0.583 -0.584,0.583 l 0,0 c -0.322,0 -0.584,-0.261 -0.584,-0.583 l 0,-6.432 c 0,-0.322 0.262,-0.583 0.584,-0.583 z"
     style="fill:#ffffff;stroke:none;stroke-miterlimit:10"
     id="path19" />
  <path
     d="m 106.861,9.91 c -0.1,-0.099 -0.157,-0.234 -0.157,-0.375 0,-0.141 0.057,-0.276 0.157,-0.375 1.536,-1.54 1.536,-4.032 0,-5.572 -0.206,-0.207 -0.206,-0.542 0,-0.75 0.207,-0.207 0.542,-0.208 0.75,-0.003 0.938,0.938 1.466,2.211 1.466,3.538 0,1.326 -0.528,2.599 -1.466,3.537 -0.1,0.099 -0.235,0.155 -0.376,0.155 -0.14,0 -0.275,-0.056 -0.374,-0.155 z"
     id="path21"
     style="fill:#808080" />
  <path
     d="m 93.581,2.836 c 0.1,0.099 0.156,0.234 0.156,0.375 0,0.141 -0.056,0.276 -0.156,0.375 -1.536,1.54 -1.536,4.032 0,5.572 0.206,0.207 0.206,0.542 -0.001,0.75 -0.206,0.207 -0.541,0.208 -0.749,0.003 C 91.892,8.973 91.365,7.7 91.365,6.373 c 0,-1.326 0.527,-2.599 1.466,-3.537 0.1,-0.099 0.235,-0.155 0.375,-0.155 0.141,0 0.275,0.056 0.375,0.155 z"
     id="path23"
     style="fill:#808080" />
</svg>
