<?xml version="1.0" standalone="no"?><!-- Generator: Gravit.io --><svg xmlns="http://www.w3.org/2000/svg" xmlns:xlink="http://www.w3.org/1999/xlink" style="isolation:isolate" viewBox="0 0 22 22" width="22" height="22"><defs><clipPath id="_clipPath_OQoo06ziQlaQmX02m8yqU23N8GU3WBFu"><rect width="22" height="22"/></clipPath></defs><g clip-path="url(#_clipPath_OQoo06ziQlaQmX02m8yqU23N8GU3WBFu)"><clipPath id="_clipPath_i8WbYyFNYQbJaNmibgH4SZHrQpzLmY6r"><rect x="0" y="0" width="22" height="22" transform="matrix(1,0,0,1,0,0)" fill="rgb(255,255,255)"/></clipPath><g clip-path="url(#_clipPath_i8WbYyFNYQbJaNmibgH4SZHrQpzLmY6r)"><g id="Group"><path d=" M 5.328 20.455 C 5.114 20.455 4.91 20.36 4.772 20.196 C 4.634 20.032 4.575 19.816 4.611 19.604 L 5.63 13.666 L 1.316 9.461 C 1.118 9.267 1.046 8.978 1.132 8.715 C 1.218 8.451 1.445 8.259 1.72 8.219 L 7.681 7.353 L 10.348 1.951 C 10.47 1.702 10.723 1.545 11 1.545 L 11 1.545 C 11.277 1.545 11.53 1.702 11.653 1.951 L 14.319 7.353 L 20.281 8.219 C 20.555 8.259 20.783 8.451 20.868 8.715 C 20.954 8.978 20.883 9.267 20.685 9.461 L 16.37 13.666 L 17.389 19.604 C 17.435 19.877 17.323 20.153 17.099 20.316 C 16.875 20.479 16.578 20.5 16.333 20.372 L 11 17.568 L 5.666 20.372 C 5.562 20.427 5.446 20.455 5.328 20.455 Z " fill="rgb(230,79,29)" vector-effect="non-scaling-stroke" stroke-width="0.97" stroke="rgb(230,79,29)" stroke-opacity="100" stroke-linejoin="miter" stroke-linecap="butt" stroke-miterlimit="4"/><path d=" M 11 16.018 C 11.118 16.018 11.234 16.047 11.339 16.101 L 15.705 18.397 L 14.871 13.535 C 14.831 13.299 14.909 13.058 15.081 12.891 L 18.614 9.448 L 13.732 8.738 C 13.494 8.704 13.289 8.555 13.183 8.34 L 11 3.916 L 8.817 8.34 C 8.71 8.555 8.505 8.704 8.268 8.738 L 3.387 9.447 L 6.92 12.891 C 7.091 13.058 7.17 13.299 7.129 13.535 L 6.295 18.397 L 10.662 16.101 C 10.766 16.047 10.882 16.018 11 16.018 Z " fill="rgb(230,79,29)" vector-effect="non-scaling-stroke" stroke-width="0.97" stroke="rgb(230,79,29)" stroke-opacity="100" stroke-linejoin="miter" stroke-linecap="butt" stroke-miterlimit="4"/></g></g></g></svg>