<?xml version="1.0" standalone="no"?><!-- Generator: Gravit.io --><svg xmlns="http://www.w3.org/2000/svg" xmlns:xlink="http://www.w3.org/1999/xlink" style="isolation:isolate" viewBox="91.365 0 85.928 14.832" width="85.928" height="14.832"><g id="Group"><path d=" M 116.357 3.727 C 116.357 2.981 116.927 2.483 117.821 2.483 C 118.43 2.497 119.027 2.658 119.561 2.952 L 120.204 1.286 C 119.442 0.889 118.592 0.693 117.733 0.716 C 115.612 0.716 114.296 1.957 114.296 3.844 C 114.296 5.703 115.773 6.493 116.957 7.034 C 117.733 7.385 118.406 7.766 118.406 8.511 C 118.406 9.287 117.777 9.799 116.796 9.799 C 116.117 9.797 115.448 9.626 114.852 9.301 L 114.179 11.085 C 115.032 11.473 115.96 11.667 116.897 11.655 C 119.181 11.655 120.511 10.341 120.511 8.409 C 120.511 6.537 119.006 5.805 117.851 5.235 C 117.074 4.854 116.357 4.459 116.357 3.727 M 126.25 7.502 C 126.25 8.994 125.607 10.048 124.362 10.048 C 124.044 10.05 123.728 10.001 123.425 9.902 L 123.425 5.131 C 123.719 5.019 124.032 4.964 124.347 4.971 C 125.577 4.971 126.25 5.907 126.25 7.502 M 128.252 7.502 C 128.252 4.941 126.864 3.422 124.318 3.422 C 123.328 3.401 122.346 3.596 121.438 3.991 L 121.438 14.625 L 123.425 14.625 L 123.425 11.392 C 123.795 11.506 124.18 11.566 124.567 11.568 C 126.981 11.568 128.252 9.931 128.252 7.502 M 134.097 6.654 L 130.789 7.106 C 130.819 5.629 131.551 4.868 132.59 4.868 C 133.511 4.868 134.097 5.468 134.097 6.654 M 135.996 7.677 C 136.02 7.454 136.03 7.229 136.026 7.004 C 136.026 4.854 134.812 3.422 132.633 3.422 C 130.336 3.422 128.978 5.117 128.978 7.531 C 128.978 9.96 130.351 11.655 132.955 11.655 C 133.955 11.677 134.947 11.483 135.865 11.085 L 135.295 9.595 C 134.61 9.923 133.86 10.093 133.101 10.092 C 132.025 10.206 131.056 9.439 130.921 8.365 L 135.996 7.677 Z  M 141.197 10.077 C 140.833 10.19 140.452 10.245 140.071 10.238 C 139.031 10.238 138.447 9.813 138.447 9.067 C 138.447 7.881 139.733 7.749 141.197 7.676 L 141.197 10.077 Z  M 140.128 11.655 C 141.142 11.675 142.149 11.48 143.082 11.085 L 143.082 6.23 C 143.082 4.211 141.958 3.422 139.939 3.422 C 138.937 3.429 137.945 3.622 137.013 3.991 L 137.51 5.337 C 138.213 5.05 138.961 4.891 139.72 4.868 C 140.626 4.868 141.197 5.175 141.197 5.995 L 141.197 6.405 C 138.811 6.538 136.576 6.961 136.576 9.111 C 136.576 10.72 137.759 11.655 140.128 11.655 M 148.202 7.282 L 151.04 3.598 L 148.743 3.598 L 146.14 7.049 L 146.11 7.049 L 146.11 0 L 144.137 0 L 144.137 11.479 L 146.11 11.479 L 146.11 7.502 L 146.14 7.502 L 148.977 11.479 L 151.229 11.479 L 148.202 7.282 Z " fill="rgb(230,83,32)"/><path d=" M 161.62 3.597 L 159.633 3.597 L 159.633 11.48 L 161.62 11.48 L 161.62 3.597 Z  M 156.927 4.095 C 156.927 5.207 156.152 5.879 154.703 5.879 C 154.409 5.883 154.115 5.858 153.825 5.806 L 153.825 2.455 C 154.171 2.346 154.531 2.292 154.893 2.294 C 156.225 2.294 156.927 2.879 156.927 4.095 Z  M 158.944 4.108 C 158.944 2.046 157.497 0.716 154.864 0.716 C 153.817 0.698 152.778 0.892 151.808 1.286 L 151.808 11.48 L 153.825 11.48 L 153.825 7.369 C 154.15 7.42 154.478 7.444 154.806 7.442 C 157.541 7.442 158.944 6.025 158.944 4.109 M 161.767 1.256 C 161.727 0.656 161.228 0.189 160.627 0.189 C 160.025 0.189 159.527 0.656 159.487 1.256 C 159.519 1.862 160.02 2.338 160.627 2.338 C 161.234 2.338 161.735 1.862 161.767 1.256 Z  M 167.517 7.502 C 167.517 8.994 166.873 10.048 165.63 10.048 C 165.312 10.051 164.995 10.001 164.693 9.901 L 164.693 5.131 C 164.986 5.019 165.299 4.964 165.614 4.971 C 166.843 4.971 167.517 5.906 167.517 7.502 M 169.519 7.502 C 169.519 4.941 168.131 3.422 165.585 3.422 C 164.595 3.401 163.613 3.595 162.705 3.991 L 162.705 14.624 L 164.693 14.624 L 164.693 11.392 C 165.062 11.507 165.447 11.566 165.834 11.567 C 168.248 11.567 169.519 9.931 169.519 7.502 M 175.364 6.653 L 172.056 7.108 C 172.085 5.628 172.817 4.868 173.856 4.868 C 174.778 4.868 175.364 5.468 175.364 6.653 M 177.292 7.004 C 177.292 4.854 176.079 3.422 173.9 3.422 C 171.603 3.422 170.245 5.117 170.245 7.531 C 170.245 9.961 171.617 11.654 174.222 11.654 C 175.222 11.677 176.215 11.483 177.132 11.085 L 176.562 9.594 C 175.877 9.923 175.128 10.093 174.368 10.092 C 173.292 10.206 172.323 9.438 172.187 8.365 L 177.263 7.677 C 177.287 7.453 177.296 7.229 177.292 7.004" fill="rgb(65,65,66)"/><path d=" M 106.076 3.991 C 106.068 3.984 106.058 3.988 106.05 3.98 L 106.05 0.581 L 94.462 0.581 L 94.462 3.979 C 94.454 3.987 94.442 3.984 94.435 3.991 C 93.796 4.63 93.436 5.496 93.436 6.399 C 93.436 7.303 93.796 8.169 94.435 8.808 C 94.442 8.815 94.454 8.812 94.462 8.82 L 94.462 11.698 L 98.581 11.698 L 98.581 14.832 L 101.276 11.698 L 106.05 11.698 L 106.05 8.819 C 106.058 8.811 106.07 8.814 106.077 8.807 C 106.717 8.168 107.075 7.302 107.075 6.399 C 107.075 5.495 106.715 4.629 106.076 3.991 L 106.076 3.991 Z " fill="rgb(230,83,32)"/><path d="M 96.182 4.819 L 96.182 4.819 C 96.504 4.819 96.766 5.081 96.766 5.403 L 96.766 7.343 C 96.766 7.665 96.504 7.927 96.182 7.927 L 96.182 7.927 C 95.86 7.927 95.598 7.665 95.598 7.343 L 95.598 5.403 C 95.598 5.081 95.86 4.819 96.182 4.819 Z" style="stroke:none;fill:#FFFFFF;stroke-miterlimit:10;"/><path d="M 104.392 4.819 L 104.392 4.819 C 104.714 4.819 104.976 5.081 104.976 5.403 L 104.976 7.343 C 104.976 7.665 104.714 7.927 104.392 7.927 L 104.392 7.927 C 104.07 7.927 103.808 7.665 103.808 7.343 L 103.808 5.403 C 103.808 5.081 104.07 4.819 104.392 4.819 Z" style="stroke:none;fill:#FFFFFF;stroke-miterlimit:10;"/><path d="M 98.234 3.749 L 98.234 3.749 C 98.556 3.749 98.818 4.011 98.818 4.333 L 98.818 8.413 C 98.818 8.735 98.556 8.997 98.234 8.997 L 98.234 8.997 C 97.912 8.997 97.651 8.735 97.651 8.413 L 97.651 4.333 C 97.651 4.011 97.912 3.749 98.234 3.749 Z" style="stroke:none;fill:#FFFFFF;stroke-miterlimit:10;"/><path d="M 102.339 3.749 L 102.339 3.749 C 102.662 3.749 102.923 4.011 102.923 4.333 L 102.923 8.413 C 102.923 8.735 102.662 8.997 102.339 8.997 L 102.339 8.997 C 102.017 8.997 101.756 8.735 101.756 8.413 L 101.756 4.333 C 101.756 4.011 102.017 3.749 102.339 3.749 Z" style="stroke:none;fill:#FFFFFF;stroke-miterlimit:10;"/><path d="M 100.287 2.574 L 100.287 2.574 C 100.609 2.574 100.871 2.835 100.871 3.157 L 100.871 9.589 C 100.871 9.911 100.609 10.172 100.287 10.172 L 100.287 10.172 C 99.965 10.172 99.703 9.911 99.703 9.589 L 99.703 3.157 C 99.703 2.835 99.965 2.574 100.287 2.574 Z" style="stroke:none;fill:#FFFFFF;stroke-miterlimit:10;"/><path d=" M 106.861 9.91 C 106.761 9.811 106.704 9.676 106.704 9.535 C 106.704 9.394 106.761 9.259 106.861 9.16 C 108.397 7.62 108.397 5.128 106.861 3.588 C 106.655 3.381 106.655 3.046 106.861 2.838 C 107.068 2.631 107.403 2.63 107.611 2.835 C 108.549 3.773 109.077 5.046 109.077 6.373 C 109.077 7.699 108.549 8.972 107.611 9.91 C 107.511 10.009 107.376 10.065 107.235 10.065 C 107.095 10.065 106.96 10.009 106.861 9.91 Z " fill="rgb(65,65,66)"/><path d=" M 93.581 2.836 C 93.681 2.935 93.737 3.07 93.737 3.211 C 93.737 3.352 93.681 3.487 93.581 3.586 C 92.045 5.126 92.045 7.618 93.581 9.158 C 93.787 9.365 93.787 9.7 93.58 9.908 C 93.374 10.115 93.039 10.116 92.831 9.911 C 91.892 8.973 91.365 7.7 91.365 6.373 C 91.365 5.047 91.892 3.774 92.831 2.836 C 92.931 2.737 93.066 2.681 93.206 2.681 C 93.347 2.681 93.481 2.737 93.581 2.836 Z " fill="rgb(65,65,66)"/></g></svg>