<?xml version="1.0" encoding="UTF-8" standalone="no"?>
<svg
   xmlns:dc="http://purl.org/dc/elements/1.1/"
   xmlns:cc="http://creativecommons.org/ns#"
   xmlns:rdf="http://www.w3.org/1999/02/22-rdf-syntax-ns#"
   xmlns:svg="http://www.w3.org/2000/svg"
   xmlns="http://www.w3.org/2000/svg"
   height="21.680721"
   width="12.97238"
   version="1.1"
   viewBox="0 0 12.97238 21.680721"
   data-name="Слой 1"
   id="Слой_1">
  <metadata
     id="metadata19">
    <rdf:RDF>
      <cc:Work
         rdf:about="">
        <dc:format>image/svg+xml</dc:format>
        <dc:type
           rdf:resource="http://purl.org/dc/dcmitype/StillImage" />
        <dc:title>SP-ICON</dc:title>
      </cc:Work>
    </rdf:RDF>
  </metadata>
  <defs
     id="defs4">
    <style
       id="style2">.cls-1{fill:#414142;}</style>
  </defs>
  <title
     id="title6">SP-ICON</title>
  <rect
     style="fill:#414142"
     id="rect8"
     transform="rotate(-90)"
     ry="3.4033301"
     rx="3.4033301"
     height="6.8066702"
     width="13.01222"
     y="3.0827501"
     x="-13.01222"
     class="cls-1" />
  <path
     style="fill:#414142"
     id="path10"
     d="M 6.48619,16.716611 A 6.49379,6.49379 0 0 1 0,10.230421 a 0.9228,0.9228 0 1 1 1.8456,0 4.64059,4.64059 0 0 0 9.28118,0 0.9228,0.9228 0 1 1 1.8456,0 6.49379,6.49379 0 0 1 -6.48619,6.48619 z"
     class="cls-1" />
  <path
     style="fill:#414142"
     id="path12"
     d="m 6.48619,21.680721 a 0.92285,0.92285 0 0 1 -0.9228,-0.9228 v -4.96411 a 0.9228,0.9228 0 0 1 1.8456,0 v 4.96411 a 0.92285,0.92285 0 0 1 -0.9228,0.9228 z"
     class="cls-1" />
  <path
     style="fill:#414142"
     id="path14"
     d="M 10.32564,21.680721 H 2.64629 a 0.9228,0.9228 0 1 1 0,-1.8456 h 7.67934 a 0.9228,0.9228 0 1 1 0,1.8456 z"
     class="cls-1" />
</svg>
