<svg id="Слой_1" data-name="Слой 1" xmlns="http://www.w3.org/2000/svg" viewBox="0 0 22.67717 22.67717"><defs><style>.cls-1{fill:#787878;}</style></defs><title>SP-ICON</title><path class="cls-1" d="M14.74822,18.02671H3.14568a1,1,0,0,1,0-2H14.74822a3.7832,3.7832,0,0,0,0-7.56641h-3.708a1,1,0,0,1,0-2h3.708a5.7832,5.7832,0,0,1,0,11.56641Z"/><path class="cls-1" d="M11.1256,10.20221,7.53429,7.79258a.39986.39986,0,0,1,0-.6641L11.1256,4.71886a.39986.39986,0,0,1,.62265.332V9.87016A.39986.39986,0,0,1,11.1256,10.20221Z"/></svg>