<svg id="Слой_1" data-name="Слой 1" xmlns="http://www.w3.org/2000/svg" viewBox="0 0 22.67717 22.67717"><defs><style>.cls-1{fill:#787878;}</style></defs><title>SP-ICON</title><path class="cls-1" d="M19.53144,18.02671H7.9289a5.7832,5.7832,0,0,1,0-11.56641h3.708a1,1,0,0,1,0,2H7.9289a3.7832,3.7832,0,0,0,0,7.56641H19.53144a1,1,0,0,1,0,2Z"/><path class="cls-1" d="M11.55157,10.20221l3.59131-2.40963a.39986.39986,0,0,0,0-.6641L11.55157,4.71886a.39986.39986,0,0,0-.62265.332V9.87016A.39986.39986,0,0,0,11.55157,10.20221Z"/></svg>